<?xml version="1.0" encoding="utf-8"?>
<!-- Generator: Adobe Illustrator 21.0.0, SVG Export Plug-In . SVG Version: 6.00 Build 0)  -->
<svg version="1.1" id="Capa_1" xmlns="http://www.w3.org/2000/svg" xmlns:xlink="http://www.w3.org/1999/xlink" x="0px" y="0px"
	 viewBox="0 0 200 200" style="enable-background:new 0 0 200 200;" xml:space="preserve">
<style type="text/css">
	.st0{display:none;}
	.st1{display:inline;}
	.st2{display:inline;fill:#FFFFFF;}
	.st3{fill:#FFFFFF;}
	.st4{display:inline;fill:#1F97AE;}
</style>
<g id="Capa_1_1_" class="st0">
	<g class="st1">
		<rect width="200" height="200"/>
	</g>
</g>
<g id="Capa_2" class="st0">
	<path id="XMLID_50_" class="st2" d="M114.9,60V44c0-7.8,5.2-9.6,8.8-9.6c3.6,0,22.4,0,22.4,0V0.1L115.3,0C81,0,73.2,25.6,73.2,41.9
		V60H53.3v24.2V100h20c0,45.3,0,100,0,100h40c0,0,0-55.2,0-100H143l1.4-15.7l2.2-24.3C146.6,60,114.9,60,114.9,60z"/>
</g>
<g id="Capa_3" class="st0">
	<path id="XMLID_72_" class="st2" d="M200,38.9c-7.4,3.2-15.3,5.4-23.6,6.4c8.5-5,15-12.9,18-22.4c-7.9,4.6-16.7,8-26.1,9.8
		c-7.5-7.8-18.1-12.8-29.9-12.8c-22.7,0-41,18.1-41,40.4c0,3.2,0.4,6.2,1.1,9.2c-34.1-1.7-64.3-17.8-84.6-42.2
		c-3.5,6-5.6,12.9-5.6,20.3c0,14,7.3,26.4,18.3,33.6c-6.7-0.2-13.1-2-18.6-5c0,0.2,0,0.3,0,0.5c0,5.2,1,10.1,2.8,14.6
		c5,12.7,16.3,22.2,30.1,25c-3.5,0.9-7.1,1.4-10.8,1.4c-2.6,0-5.2-0.3-7.7-0.7c5.2,16,20.4,27.7,38.3,28c-14,10.8-31.7,17.3-51,17.3
		c-3.3,0-6.6-0.2-9.8-0.6c18.3,11.6,39.9,18.3,63,18.3c64.1,0,103.6-44.4,114-90.5c1.8-8.1,2.8-16.4,2.8-24.4c0-1.7,0-3.5-0.1-5.2
		C187.6,54.2,194.5,47,200,38.9z"/>
</g>
<g id="Capa_4" class="st0">
	<path class="st2" d="M198,58.3c0,0-1.9-14.4-7.9-20.7c-7.6-8.3-16.1-8.3-20-8.8c-28-2.1-70-2.1-70-2.1H100c0,0-42,0-70,2.1
		c-3.9,0.5-12.4,0.5-20,8.8c-6,6.3-8,20.7-8,20.7S0,75.2,0,92.1v2v13.8c0,16.9,2,33.8,2,33.8s2,14.4,7.9,20.7
		c7.6,8.3,17.6,8,22.1,8.9c16,1.6,68,2.1,68,2.1s42-0.1,70-2.2c3.9-0.5,12.4-0.5,20-8.8c6-6.3,7.9-20.7,7.9-20.7s2-16.9,2-33.8V95
		v-2.9C200,75.2,198,58.3,198,58.3z M133.4,97.9l-54,29.2V82.2V68.5l24.4,13.3L133.4,97.9z"/>
</g>
<g id="Capa_5" class="st0">
	<path class="st2" d="M161.3,0H38.6C17.3,0,0,17.3,0,38.6v40.8v15v66.8C0,182.7,17.3,200,38.6,200h122.7c21.3,0,38.7-17.3,38.7-38.6
		V94.5v-15V38.6C200,17.3,182.7,0,161.3,0z M172.4,23.1h4.4v4.4V57h-33.7L143,23.1H172.4z M71.5,79.5c6.4-8.9,16.8-14.7,28.5-14.7
		s22.1,5.8,28.5,14.7c0.8,1.1,1.5,2.2,2.1,3.4c2.9,5.1,4.5,10.9,4.5,17.2c0,19.4-15.8,35.2-35.2,35.2s-35.2-15.8-35.2-35.2
		c0-6.2,1.7-12.1,4.5-17.2C70,81.7,70.7,80.5,71.5,79.5z M180.5,161.4c0,10.6-8.6,19.2-19.2,19.2H38.6c-10.6,0-19.2-8.6-19.2-19.2
		V89.8V79.5h29.9c-0.7,1.8-1.4,3.7-1.9,5.6c-1.4,4.7-2.1,9.7-2.1,14.9c0,30.2,24.5,54.7,54.7,54.7s54.7-24.5,54.7-54.7
		c0-5.2-0.7-10.1-2.1-14.9c-0.6-1.9-1.2-3.8-1.9-5.6h29.9v10.4L180.5,161.4L180.5,161.4z"/>
</g>
<g id="Capa_6" class="st0">
	<g class="st1">
		<g>
			<g>
				<path class="st3" d="M59.6,186.3l0.1,0.2c0.1,3.8-1.3,7-4,9.6c-2.8,2.6-6.4,3.9-10.9,3.9c-4.6,0-8.4-1.6-11.3-4.9
					c-2.9-3.3-4.3-7.4-4.3-12.4v-7.3c0-5,1.4-9.2,4.3-12.4c2.9-3.3,6.7-4.9,11.3-4.9s8.3,1.2,11,3.7s4.1,5.7,4,9.8l-0.1,0.2h-5.3
					c0-2.9-0.8-5.1-2.5-6.8s-4.1-2.5-7.1-2.5c-3.1,0-5.5,1.2-7.4,3.7c-1.8,2.5-2.7,5.6-2.7,9.2v7.3c0,3.7,0.9,6.8,2.7,9.3
					s4.3,3.7,7.4,3.7c3.1,0,5.4-0.8,7.1-2.5c1.7-1.7,2.5-3.9,2.5-6.9L59.6,186.3L59.6,186.3z"/>
				<path class="st3" d="M98,199.4h-5.5v-18H72.6v18h-5.5v-40.8h5.5V177h19.8v-18.4H98V199.4z"/>
				<path class="st3" d="M130.6,188.9h-17.1l-3.9,10.5H104l15.8-40.8h4.7l15.5,40.8h-5.6L130.6,188.9z M115.3,184.3H129l-6.7-18.6
					h-0.2L115.3,184.3z"/>
				<path class="st3" d="M173.3,163h-13.1v36.4h-5.5V163h-13.1v-4.3h31.7L173.3,163L173.3,163z"/>
			</g>
		</g>
		<g>
			<path class="st3" d="M50.8,122.4l-30.2,8.1l8.3-30.9c-5.7-9.8-9-21.2-9-33.3C19.9,29.7,49.6,0,86.2,0s66.3,29.7,66.3,66.3
				s-29.7,66.3-66.3,66.3C73.2,132.6,61.1,128.9,50.8,122.4L50.8,122.4z"/>
			<path class="st3" d="M179.4,143.3L152,136c-9.3,5.9-20.4,9.3-32.2,9.3c-8.4,0-16.5-1.7-23.8-4.9c36.6-4.8,65-36.2,65-74.1
				c0-11-2.4-21.4-6.7-30.8c15.6,10.9,25.8,29,25.8,49.4c0,11-3,21.4-8.2,30.3L179.4,143.3z"/>
		</g>
	</g>
</g>
<g id="Capa_7" class="st0">
	<path class="st4" d="M24.2,8.7c1.3-0.8,2.4-2,3.8-2.5c8.3-3.5,17.8-3.8,26.5-5.8C65.8-2.2,87.6,49.5,73.6,54
		c-5.2,1.6-21.6,4.1-25.9,7.4c-3.8,2.9-2,10,1.8,14.5c10.1,11.8,24.8,24.9,36.5,36.4c0.3,0.3,0.7,0.7,1,1s0.7,0.6,1,0.9l0,0
		c11.5,11.7,24.7,26.4,36.5,36.4c4.5,3.8,11.6,5.6,14.5,1.8c3.2-4.3,5.7-20.7,7.3-25.9c4.5-14,56.2,7.9,53.6,19.2
		c-2.1,8.8-2.4,18.2-5.8,26.5c-0.6,1.4-1.7,2.5-2.5,3.8c-18.7,29.5-64.2,33.3-98,4.5c-12.9-11-25.5-22.4-37.7-34.2h-0.1
		c-0.3-0.3-0.6-0.7-0.9-1c-0.3-0.3-0.7-0.6-1-0.9v-0.1c-11.8-12.2-23.2-24.8-34.2-37.7C-9.1,72.8-5.3,27.4,24.2,8.7L24.2,8.7z"/>
</g>
<g id="Capa_8">
	<g>
		<path class="st3" d="M197.5,185.7l-36.2-36.2c5.8-7,10.7-14.9,14.2-23.4c4.5-10.7,6.9-22.6,6.9-34.9c0-12.1-2.4-23.7-6.7-34.4
			l-0.2-0.5c-4.6-10.9-11.2-20.8-19.4-29.2l-0.4-0.4c-8.4-8.4-18.4-15.2-29.6-19.8l0,0H126C115.2,2.4,103.4,0,91.1,0
			c-25.2,0-48,10.2-64.4,26.7C18.3,35,11.5,45.1,6.9,56.3C2.4,67.1,0,78.9,0,91.2c0,12.1,2.4,23.8,6.7,34.4l0.2,0.5
			c4.7,11.1,11.4,21.2,19.8,29.6l0,0c8.4,8.4,18.5,15.2,29.6,19.8l0,0l0,0c10.8,4.4,22.6,6.9,34.9,6.9s24.1-2.4,34.9-6.9
			c8.5-3.6,16.4-8.3,23.4-14.2l36.2,36.2c3.3,3.3,8.5,3.3,11.8,0C200.7,194.3,200.7,189,197.5,185.7z M143.9,144L143.9,144l-0.2,0.1
			c-6.8,6.7-15,12.3-24,16c-8.7,3.6-18.4,5.6-28.5,5.6s-19.8-2-28.5-5.6l0,0c-9.2-3.8-17.4-9.4-24.2-16.2l0,0l0,0
			c-6.9-6.9-12.4-15.1-16.2-24.2l-0.2-0.4c-3.6-8.6-5.5-18.1-5.5-28.1c0-10.2,2-19.8,5.6-28.5c3.7-9.1,9.3-17.3,16.2-24.2
			C51.9,25,70.5,16.7,91.1,16.7c10.1,0,19.8,2,28.5,5.6l0,0c9.1,3.8,17.3,9.3,24.2,16.2l0.4,0.4c6.7,6.8,12.1,14.8,15.8,23.8
			l0.2,0.4c3.5,8.7,5.4,18.1,5.4,28.1c0,10.1-2,19.8-5.6,28.5C156.3,128.9,150.7,137.1,143.9,144z"/>
	</g>
</g>
</svg>
