<?xml version="1.0" standalone="no"?>
<!DOCTYPE svg PUBLIC "-//W3C//DTD SVG 1.1//EN" "http://www.w3.org/Graphics/SVG/1.1/DTD/svg11.dtd" >
<svg xmlns="http://www.w3.org/2000/svg">
<metadata>
<json>
<![CDATA[
{
	"fontFamily": "yotpo-widget-font",
	"majorVersion": 1,
	"minorVersion": 0,
	"description": "yotpo\nFont generated by IcoMoon.",
	"version": "Version 1.0",
	"fontId": "yotpo-widget-font",
	"psName": "yotpo-widget-font",
	"subFamily": "Regular",
	"fullName": "yotpo-widget-font"
}
]]>
</json>
</metadata>
<defs>
<font id="yotpo-widget-font" horiz-adv-x="512">
<font-face units-per-em="512" ascent="414.72" descent="-97.28" />
<missing-glyph horiz-adv-x="512" />
<glyph unicode="&#x20;" horiz-adv-x="614.4" d="" />
<glyph unicode="&#xe600;" glyph-name="STORE" data-tags="STORE" d="M54.106 177.537v-243.477h405.795v243.477h-405.795zM405.795-11.835h-302.56v135.264h302.56v-135.264zM219.589 366.907l-19.559-93.819h-0.081v-19.099c0-20.127-16.34-36.467-36.467-36.467-20.154 0-36.467 16.34-36.467 36.467v19.099l55.892 93.82h36.685zM161.993 366.907l-57.082-93.819v-19.099c0-20.127-16.34-36.467-36.467-36.467s-36.467 16.34-36.467 36.467v19.099l92.007 93.82h38.009zM485.005 273.087v-19.099c0-20.127-16.34-36.467-36.44-36.467-20.127 0-36.494 16.34-36.494 36.467v19.099l-57.082 93.82h38.036l91.98-93.82zM294.851 273.087h0.108v-19.099c0-20.127-16.34-36.467-36.494-36.467-20.127 0-36.467 16.34-36.467 36.467v19.099h0.108l18.423 93.82h35.953l18.37-93.82zM334.104 366.907l55.891-93.819v-19.099c0-20.127-16.34-36.467-36.467-36.467-20.154 0-36.494 16.34-36.494 36.467v19.099h-0.081l-19.559 93.82h36.711z" />
<glyph unicode="&#xe601;" glyph-name="videocamera" data-tags="video camera" d="M65.956 258.695h220.13c21.263 0 38.55-17.288 38.55-38.605v-139.215c0-21.318-17.286-38.605-38.577-38.605h-220.102c-21.317 0-38.577 17.287-38.577 38.605v139.215c0 21.317 17.261 38.605 38.577 38.605zM352.689 185.761v-68.986l134.263-73.070v213.934l-134.264-71.879z" />
<glyph unicode="&#xe602;" glyph-name="uparrow" data-tags="up arrow" d="M257.002 285.207l177.631-177.63-38.252-38.252-139.377 139.376-139.35-139.376-38.252 38.252z" />
<glyph unicode="&#xe603;" glyph-name="twitter" data-tags="twitter" d="M435.958 181.676c25.998 2.11 43.636 13.959 50.399 29.975-9.387-5.735-38.469-12.039-54.594-6.060-0.731 3.787-1.704 7.357-2.543 10.606-12.228 44.99-54.214 81.186-98.121 76.831 3.571 1.434 7.169 2.758 10.713 3.95 4.87 1.731 33.248 6.358 28.757 16.367-3.786 8.819-38.442-6.655-44.962-8.684 8.63 3.245 22.887 8.819 24.375 18.721-13.175-1.814-26.16-8.036-36.197-17.125 3.652 3.896 6.356 8.63 6.979 13.743-35.25-22.482-55.81-67.821-72.42-111.81-12.984 12.661-24.591 22.616-34.952 28.162-29.163 15.608-64.035 31.922-118.763 52.239-1.65-18.098 8.954-42.175 39.605-58.164-6.628 0.893-18.775-1.109-28.487-3.409 3.95-20.749 16.854-37.848 51.806-46.098-15.961-1.055-24.239-4.707-31.706-12.553 7.277-14.392 25.024-31.408 56.973-27.918-35.52-15.259-14.5-43.636 14.392-39.417-49.29-50.886-127.013-47.126-171.65-4.545 116.543-158.774 369.84-93.9 407.606 59.002 28.27-0.27 44.882 9.766 55.188 20.832-16.259-2.732-39.849 0.108-52.401 5.356z" />
<glyph unicode="&#xe604;" glyph-name="thumbsup" data-tags="thumbs up" d="M95.875 231.643h-29.433c-6.844 0-12.336-5.546-12.336-12.363v-191.724c0-6.817 5.492-12.336 12.336-12.336l29.433 0.271c6.817 0 12.336 5.52 12.336 12.336v191.723c0 6.817-5.52 12.094-12.336 12.094zM458.358 222.418c-1.704 3.057-4.815 5.654-9.198 7.656-1.109 0.487-2.272 0.785-3.49 0.947-10.497 1.381-88.598 0-175.195 0 11.227 34.871 25.349 56.919 25.349 90.33 0 37.035-22.779 61.356-37.035 61.653-6.763 0-12.255-5.438-12.336-12.201-0.541-48.668-36.467-110.106-99.987-136.266-6.682-2.11-11.2-7.982-11.2-14.581l0.108-194.754c0-10.468 11.362-12.363 11.362-12.363 3.544-1.028 18.856-2.164 74.856-15.692 0.947-0.216 37.658-8.983 74.666-8.983h73.665c13.905 0 20.452 4.626 24.51 12.309 0.541 1.001 65.143 96.010 65.467 215.909 0 2.137-0.541 4.193-1.542 6.034z" />
<glyph unicode="&#xe605;" glyph-name="thumbsdown" data-tags="thumbs down" d="M418.13 96.378h29.433c6.844 0 12.336 5.546 12.336 12.363v191.724c0 6.817-5.493 12.336-12.336 12.336l-29.433-0.243c-6.817 0-12.336-5.52-12.336-12.336v-191.723c0-6.844 5.52-12.12 12.336-12.12zM55.621 105.603c1.703-3.030 4.816-5.654 9.225-7.629 1.109-0.514 2.272-0.784 3.464-0.947 10.497-1.38 88.625 0 175.195 0-11.227-34.871-25.349-56.919-25.349-90.356 0-37.035 22.779-61.356 37.035-61.626 6.763 0 12.255 5.41 12.336 12.173 0.568 48.695 36.494 110.106 100.015 136.265 6.682 2.11 11.2 7.955 11.2 14.581l-0.108 194.781c0 10.416-11.362 12.363-11.362 12.363-3.544 1.028-18.857 2.192-74.883 15.692-0.947 0.161-37.63 8.953-74.639 8.953h-73.665c-13.878 0-20.452-4.626-24.511-12.309-0.514-1.001-65.143-95.983-65.469-215.964 0-2.11 0.514-4.139 1.515-5.979z" />
<glyph unicode="&#xe606;" glyph-name="threelines" data-tags="three lines" d="M27.053 339.853h459.603v-81.158h-459.603v81.159zM27.053 203.859h459.603v-80.428h-459.603v80.428zM27.053 68.594h459.603v-80.429h-459.603v80.429z" />
<glyph unicode="&#xe607;" glyph-name="dot" data-tags="dot" d="M257.002 203.886c22.048 0 39.904-17.855 39.904-39.876s-17.856-39.876-39.904-39.876c-21.994 0-39.876 17.829-39.876 39.876 0 21.994 17.856 39.876 39.876 39.876z" />
<glyph unicode="&#xe608;" glyph-name="div" data-tags="div" d="M245.883 392.119h24.645v-458.061h-24.645v458.061z" />
<glyph unicode="&#xe609;" glyph-name="YOTPO" data-tags="YOTPO" d="M151.144 137.741h-10.037v-34.709h10.037c12.309 0 16.799 7.088 16.799 17.288 0 10.146-4.492 17.422-16.799 17.422zM255.947 193.903c17.070 0 26.863 12.958 26.863 29.434s-9.766 29.271-26.863 29.271c-17.096 0-26.837-12.769-26.837-29.271s9.739-29.434 26.837-29.434zM248.319 393.96c-122.468 0-221.726-102.043-221.726-227.921s99.257-227.893 221.726-227.893c122.469 0 221.726 102.016 221.726 227.893s-99.257 227.921-221.726 227.921zM255.947 276.982c29.38 0 54.728-22.048 54.728-53.645s-25.349-53.782-54.727-53.782c-29.406 0-54.727 22.183-54.727 53.782s25.349 53.645 54.727 53.645zM135.535 275.766l23.103-42.716 22.969 42.716h28.623l-38.388-67.849v-37.008h-27.269v36.251l-39.010 68.606h29.975zM152.499 79.307h-11.389v-22.724h-27.323v104.857h38.714c27.433 0 42.88-17.882 42.88-41.12 0-23.32-15.447-41.012-42.88-41.012zM255.515 55.257c-29.406 0-54.727 22.129-54.727 53.726s25.321 53.673 54.727 53.673c29.38 0 54.728-22.075 54.728-53.673s-25.349-53.726-54.727-53.726zM325.527 55.067c-7.981 0-15.014 6.195-15.014 15.123 0 8.982 7.034 15.176 15.014 15.176 7.791 0 14.987-6.195 14.987-15.176 0-8.955-7.196-15.123-14.987-15.123zM391.050 252.148h-26.971v-81.24h-27.296v81.24h-27v23.617h81.267v-23.617zM255.515 138.337c-17.096 0-26.863-12.796-26.863-29.325 0-16.475 9.766-29.38 26.863-29.38s26.837 12.904 26.837 29.38c0 16.529-9.739 29.325-26.837 29.325z" />
<glyph unicode="&#xe60a;" glyph-name="checkmark" data-tags="checkmark" d="M481.163 268.271l-269.853-269.825c-6.79-6.817-17.748-6.817-24.537 0l-5.439 5.438-0.027-0.054-5.899 5.925-25.43 25.457c-0.161 0.161-0.215 0.378-0.379 0.568l-116.734 117.572c-6.79 6.763-6.79 17.746 0 24.51l36.791 36.791c6.763 6.79 17.746 6.79 24.511 0l104.992-105.695 220.644 220.643c6.79 6.763 17.774 6.763 24.538 0l36.793-36.792c6.79-6.763 6.79-17.774 0.027-24.537z" />
<glyph unicode="&#xe60b;" glyph-name="heart" data-tags="heart" d="M257.733-65.94l-194.593 204.574c-6.222 7.142-11.822 15.068-16.611 23.563-4.734 8.358-8.657 17.26-11.714 26.484-5.167 15.691-7.818 31.868-7.818 48.073 0 79.211 59.76 143.65 133.209 143.65 36.981 0 71.826-16.475 96.794-44.962 24.943 28.486 59.841 44.962 96.796 44.962 73.448 0 133.181-64.412 133.181-143.65 0-15.934-2.543-31.868-7.521-47.315-3.165-9.82-7.358-19.315-12.498-28.189-4.274-7.44-9.225-14.527-14.716-21.020l-1.055-1.136-193.455-205.034z" />
<glyph unicode="&#xe60c;" glyph-name="camera" data-tags="camera" d="M189.37 285.748v27.052h-81.159v-27.052h-54.106v-243.477h432.847v243.477h-297.582zM189.37 231.643h-81.159v27.053h81.159l27.053-27.053h-27.053zM333.617 72.923c-49.723 0-90.032 40.308-90.032 90.033s40.309 90.032 90.032 90.032 90.005-40.309 90.005-90.032c0-49.724-40.282-90.033-90.005-90.033zM382.312 163.361c0-26.789-21.716-48.506-48.507-48.506s-48.507 21.716-48.507 48.506c0 26.789 21.716 48.505 48.507 48.505s48.507-21.716 48.507-48.505z" />
<glyph unicode="&#xe60d;" glyph-name="attachment" data-tags="attachment" d="M368.703 204.508c0 0 18.558 14.095 4.438 28.189-14.094 14.095-27.783-4.085-27.783-4.085l-110.268-110.214c0 0-33.249-42.933-58.488-16.989-25.213 26.024 16.935 58.462 16.935 58.462l154.417 154.417c0 0 43.394 47.856 84.162 7.062 40.796-40.796-7.196-84.325-7.196-84.325l-209.037-209.065c0 0-66.875-77.236-128.826-15.312-61.898 61.951 16.096 128.095 16.096 128.095l158.719 158.692c0 0 17.774 14.825 4.464 28.189-13.337 13.364-28.162-4.464-28.162-4.464l-182.093-182.067c0 0-68.742-75.424 8.035-152.199s152.173-8.036 152.173-8.036l250.347 250.321c0 0 50.048 55.269-9.658 114.975s-114.975 9.632-114.975 9.632l-183.689-183.689c0 0-55.215-44.8-5.14-94.848 50.076-50.101 94.144 5.87 94.144 5.87l121.386 121.387z" />
<glyph unicode="&#xe60e;" glyph-name="star" data-tags="star" d="M401.519-52.575l-142.731 88.707-141.325-91.331 29 159.503-119.249 109.836 160.641 11.552 67.605 157.501 70.284-156.231 161.046-8.576-117.248-112.026 31.976-158.936z" />
<glyph unicode="&#xe60f;" glyph-name="share" data-tags="share" d="M141.026 101.409c36.332 158.233 217.262 191.399 217.262 191.399v48.695l107.887-107.724-107.887-107.698v48.669c0-0.027-139.891 9.468-217.262-73.341zM323.905 75.466v-33.194h-242.745v189.371h83.457l24.401 54.106h-161.154v-297.582h350.876v113.974l-54.837-26.674z" />
<glyph unicode="&#xe610;" glyph-name="settings" data-tags="settings" d="M430.007 120.591h-21.642c-3.517-12.742-8.577-24.78-15.041-35.98l19.992-19.992c12.823-12.823 12.823-33.545 0-46.369l-11.579-11.579c-12.823-12.823-33.545-12.823-46.369 0l-20.127 20.1c-11.147-6.331-23.184-11.308-35.846-14.745v-20.993c0-18.098-14.69-32.762-32.788-32.762h-16.367c-18.125 0-32.788 14.663-32.788 32.762v20.993c-12.688 3.437-24.699 8.413-35.872 14.745l-20.1-20.1c-12.823-12.823-33.546-12.823-46.369 0l-11.606 11.579c-12.796 12.823-12.796 33.545 0 46.369l20.019 19.992c-6.439 11.2-11.525 23.238-15.041 35.98h-21.642c-18.071 0-32.734 14.663-32.734 32.762v16.394c0 18.099 14.663 32.788 32.761 32.788h21.371c3.409 12.607 8.251 24.591 14.501 35.737l-19.236 19.236c-12.796 12.796-12.796 33.546 0 46.342l11.606 11.606c12.823 12.796 33.545 12.796 46.369 0l18.829-18.884c11.552 6.709 23.997 11.93 37.144 15.529v22.048c0 18.099 14.663 32.761 32.788 32.761h16.367c18.099 0 32.788-14.663 32.788-32.761v-22.021c13.147-3.598 25.592-8.819 37.143-15.529l18.829 18.856c12.823 12.796 33.545 12.796 46.369 0l11.579-11.606c12.823-12.796 12.823-33.545 0-46.342l-19.207-19.235c6.249-11.145 11.091-23.13 14.473-35.737h21.399c18.099 0 32.762-14.69 32.762-32.788v-16.367c0-18.125-14.663-32.788-32.734-32.788zM258.437 251.175c-49.777 0-90.139-40.335-90.139-90.114s40.363-90.139 90.139-90.139 90.139 40.363 90.139 90.139-40.363 90.113-90.139 90.113zM258.437 121.105c-22.643 0-40.986 18.342-40.986 40.985 0 22.616 18.342 40.959 40.986 40.959 22.616 0 40.985-18.342 40.985-40.959-0.027-22.643-18.37-40.985-40.985-40.985z" />
<glyph unicode="&#xe611;" glyph-name="rightarrow" data-tags="right arrow" d="M150.631 311.286l211.744-147.276-211.744-147.276-30.922 44.394 147.899 102.883-147.899 102.828z" />
<glyph unicode="&#xe612;" glyph-name="linkdein" data-tags="linkdein" d="M27.783 231.643h107.481v-297.582h-107.481v297.582zM459.007 201.181c-20.832 22.725-48.343 34.087-82.592 34.087-12.634 0-24.104-1.542-34.384-4.653-10.361-3.084-19.018-4.058-26.16-9.685-7.088-5.6-12.796-10.794-16.962-15.608-4.004-4.572-7.926-9.874-11.741-15.88v42.203h-97.12l0.298-14.311c0.215-9.603-0.541-39.255-0.541-88.924s0.649-114.461 0.244-194.348h107.535v166.132c0 10.199 0 21.697 2.217 27.675 4.166 10.253 1.216 15.42 9.766 22.292 8.495 6.927 15.692 12.931 28.27 12.931 17.233 0 23.996-0.865 32.139-12.823 8.090-11.876 9.604-35.98 9.604-57v-159.208h107.264v170.623c0 43.853-7.034 73.747-27.837 96.498zM82.43 367.908c-16.421 0-29.758-4.815-39.957-14.419-10.226-9.632-15.312-21.75-15.312-36.413 0-14.446 4.979-26.538 14.879-36.25s22.996-14.581 39.227-14.581h0.568c16.638 0 30.056 4.87 40.254 14.581 10.226 9.685 15.232 21.777 15.014 36.25-0.161 14.663-5.221 26.782-15.124 36.413s-23.103 14.419-39.551 14.419z" />
<glyph unicode="&#xe613;" glyph-name="leftarrow" data-tags="left arrow" d="M331.452 16.733l-211.744 147.276 211.744 147.275 30.921-44.421-147.899-102.856 147.899-102.856z" />
<glyph unicode="&#xe614;" glyph-name="googleplus" data-tags="googleplus" d="M476.267 338.989h-33.545c-5.6 0-10.146 4.545-10.146 10.146v34.384c0 5.6-4.545 10.118-10.146 10.118h-31.111c-5.6 0-12.688-4.518-12.688-10.118v-34.384c0-5.6-4.545-10.146-10.146-10.146h-34.384c-5.6 0-10.091-4.518-10.091-10.119v-33.708c0-5.6 4.492-10.146 10.091-10.146h34.384c5.6 0 10.146-4.518 10.146-10.146v-33.546c0-5.6 7.088-10.146 12.688-10.146h31.111c5.6 0 10.146 4.518 10.146 10.146v33.601c0 5.6 4.545 10.146 10.146 10.146h33.545c5.6 0 10.091 4.518 10.091 10.146v33.654c0.027 5.6-4.464 10.118-10.091 10.118zM57.163-37.94c8.657-6.331 18.639-11.688 29.948-16.015 11.335-4.329 22.562-7.385 33.709-9.252s22.156-2.731 33.005-2.731c49.344 0 88.029 12.038 116.029 36.143 25.781 22.508 38.659 48.452 38.659 77.886 0 10.524-1.542 20.344-4.545 29.433-3.057 9.144-7.034 16.962-11.876 23.51-4.87 6.493-10.253 12.581-16.178 18.235-5.87 5.6-11.768 10.686-17.665 15.312-5.899 4.599-11.281 8.983-16.178 13.256-4.841 4.22-8.792 8.63-11.849 13.23-3.030 4.599-4.572 9.306-4.572 14.095 0 6.628 2.11 12.85 6.357 18.638 4.22 5.79 9.387 11.417 15.447 16.854 6.087 5.439 12.148 11.362 18.234 17.802s11.281 14.96 15.501 25.539c4.22 10.605 6.329 22.697 6.329 36.332 0 16.206-3.598 31.76-10.767 46.693-5.6 11.633-13.012 21.263-22.183 28.865-4.302 3.571-3.679 5.952 1.921 5.952h17.016c5.6 0 14.067 2.272 18.857 5.113l19.803 11.606c4.815 2.813 4.22 5.113-1.38 5.113h-110.538c-17.125 0-34.357-1.839-51.644-5.52-25.619-5.735-47.153-18.775-64.629-39.118-17.503-20.344-26.268-43.42-26.268-69.174 0-27.242 9.793-49.912 29.433-67.957 19.613-18.044 43.149-27.053 70.555-27.053 2.95 0 6.195 0.108 9.685 0.379 5.356 0.406 9.333-0.379 8.765-2.029-0.298-0.867-0.622-1.84-1.028-2.923-0.92-2.489-1.65-4.464-2.218-5.952-0.541-1.461-1.001-3.274-1.381-5.385-0.352-2.11-0.541-4.274-0.541-6.494 0-9.928 3.951-20.885 11.795-32.896 3.057-4.707 1.381-8.36-4.22-8.657-10.552-0.622-20.966-1.731-31.3-3.327-13.636-2.11-27.891-5.438-42.825-9.928-14.906-4.545-28.27-11.038-40.038-19.613s-20.641-18.749-26.486-30.543c-6.843-13.635-10.226-26.053-10.226-37.307 0-12.309 2.759-23.51 8.305-33.545 5.438-10.037 12.498-18.207 21.182-24.564zM158.827 208.594c-8.495 4.787-15.663 10.983-21.561 18.638-5.899 7.629-11.038 16.232-15.474 25.834s-7.683 19.153-9.793 28.73c-2.137 9.577-3.192 18.666-3.192 27.323 0 17.692 4.707 32.869 14.096 45.584s22.643 19.045 39.767 19.045c12.148 0 23.157-3.787 33.032-11.335 9.82-7.548 17.557-17.125 23.184-28.73 5.6-11.579 9.928-23.59 12.984-36.034s4.572-24.158 4.572-35.222c0-13.959-2.327-25.834-6.927-35.602-2.381-5.059-7.683-12.553-12.039-16.042-7.845-6.249-18.504-9.387-31.868-9.387-9.413 0-18.342 2.409-26.782 7.196zM86.164 62.453c4.978 8.657 11.335 15.582 19.045 20.721 7.737 5.167 16.745 9.414 27.080 12.742 10.307 3.327 20.235 5.6 29.839 6.926 9.577 1.272 19.343 1.894 29.271 1.894 2.597 0 4.897 0 6.927-0.108 3.842-0.108 8.792-1.704 11.119-3.327 1.19-0.786 2.597-1.786 4.193-2.896 4.518-3.111 7.548-5.221 9.118-6.33s4.436-3.22 8.549-6.33c4.139-3.165 7.088-5.492 8.846-7.088 1.732-1.542 4.274-3.923 7.576-7.034 3.327-3.111 5.762-5.87 7.332-8.143 1.542-2.327 3.49-5.113 5.79-8.468 2.3-3.273 3.923-6.493 4.842-9.524 0.92-3.057 1.786-6.33 2.651-9.928 0.812-3.598 1.245-7.332 1.245-11.2 0-11.632-2.543-21.723-7.602-30.38s-11.903-15.42-20.587-20.29c-8.657-4.923-17.909-8.495-27.729-10.767-9.874-2.327-20.235-3.49-31.084-3.49-11.795 0-23.483 1.434-35.088 4.166s-22.697 6.926-33.248 12.58c-10.606 5.6-19.18 13.31-25.7 23.184-6.52 9.82-9.793 21.020-9.793 33.545-0.027 11.038 2.434 20.885 7.412 29.543z" />
<glyph unicode="&#xe615;" glyph-name="cross" data-tags="cross" d="M432.847 299.734l-40.147 40.119-141.677-141.677-141.162 141.136-39.632-39.605 141.162-141.161-140.918-140.946 40.092-40.119 140.945 140.918 141.135-141.108 39.659 39.605-141.163 141.161z" />
<glyph unicode="&#xe616;" glyph-name="facebook" data-tags="facebook" d="M189.37 293.512c0-13.094 0-61.871 0-61.871h-81.159v-81.158h81.159v-216.315h81.159v216.315h84.406c0 0 20.262 35.304 23.698 81.104-9.928 0-108.672 0.054-108.672 0.054s0.568 41.553 0.568 50.481 0 30.678 46.423 30.678c12.228 0 37.982 0 61.789 0 0 11.849 0 43.203 0 81.159-31.841 0-68.065 0-83.999 0-118.978 0-105.371-87.435-105.371-100.447z" />
<glyph unicode="&#xe617;" glyph-name="downarrow" data-tags="down arrow" d="M257.030 69.325l-177.603 177.629 38.252 38.252 139.35-139.376 139.35 139.377 38.252-38.252z" />
<glyph unicode="&#xe618;" glyph-name="doublebubble" data-tags="double bubble" d="M59.652 361.469h286.815c17.963 0 32.274-14.581 32.274-32.572v-178.414c0-18.017-14.311-27.053-32.274-27.053h-147.682l-90.573-82.999v82.998h-46.883c-17.99 0-34.276 9.035-34.276 27.053v178.414c0 17.99 14.581 32.572 32.599 32.572zM405.795 121.726c0 13.635 0 158.043 0 158.043h46.017c18.017 0 34.303-13.661 34.303-31.653v-155.879c0-17.963-14.581-28.378-32.599-28.378h-48.507l0.108-75.695-81.050 75.721h-77.994c-17.99 0-32.572 9.090-32.572 27.053 0 0 146.626-0.054 160.262-0.054s32.031 17.178 32.031 30.84z" />
<glyph unicode="&#xe619;" glyph-name="circle_checkmark" data-tags="circle_checkmark" d="M269.988 380.163c-119.817 0-216.938-97.12-216.938-216.964 0-119.817 97.12-216.965 216.938-216.965s216.964 97.174 216.964 216.992c0 119.817-97.147 216.938-216.964 216.938zM403.738 234.591l-145.815-145.816c-3.652-3.706-9.603-3.706-13.23 0l-2.95 2.95v-0.027l-16.962 16.962c-0.054 0.108-0.081 0.188-0.19 0.298l-63.087 63.52c-3.679 3.652-3.679 9.578 0 13.256l19.884 19.884c3.679 3.652 9.603 3.652 13.256 0l56.73-57.136 119.25 119.25c3.652 3.652 9.577 3.652 13.23 0l19.884-19.857c3.706-3.679 3.706-9.603 0-13.283z" />
<glyph unicode="&#xe61a;" glyph-name="halfstar" data-tags="half star" d="M486.791 218.413l-161.046 8.576-70.284 156.203-11.984-27.918v-68.552l12.553 29.244 51.806-115.137 115.001-6.114-82.728-79.048 2.923-14.608 19.64-97.58-104.154 64.737-14.419-9.306-0.622-0.379v-32.301l15.312 9.901 142.732-88.68-31.976 158.936zM187.856 225.69l-160.639-11.552 119.25-109.835-29.001-159.531 126.013 81.457v329.045z" />
<glyph unicode="&#xe61b;" glyph-name="starstroke" data-tags="star stroke" d="M256.029 315.966l51.806-115.137 115.002-6.114-82.728-79.048 2.923-14.608 19.64-97.58-104.154 64.737-14.419-9.306-88.841-57.487 17.828 98.039 2.678 14.637-84.188 77.533 114.65 8.251 6.494 15.124 43.312 100.961zM255.46 383.193l-67.605-157.503-160.639-11.552 119.25-109.835-29.001-159.504 141.324 91.357 142.731-88.707-31.976 158.936 117.248 112.027-161.046 8.576-70.284 156.204z" />
<glyph unicode="&#xe61c;" glyph-name="profilepicture" data-tags="profile picture" d="M448.399-92.25c0.011 0.755 10.925 64.875 3.576 80.163-3.139 45.31-46.26 95.014-108.149 114.143-22.66-20.462-51.673-32.754-83.247-32.754-32.339 0-61.921 12.959-84.822 34.274-62.686-17.925-107.394-55.776-112.972-100.504-24.694-46.13-8.104-97.027-8.104-97.027l393.717 1.707zM215.203 111.844c13.671-7.797 29.047-12.238 45.376-12.238 15.726 0 30.546 4.166 43.854 11.418 33.728 18.406 57.12 57.209 57.12 102.157 0 62.643-45.288 113.595-100.975 113.595-55.677 0-100.964-50.964-100.964-113.595 0-44.26 22.66-82.59 55.59-101.336z" />
<glyph unicode="&#xe61d;" glyph-name="downtriangle" data-tags="down triangle" d="M257.030 96.378l-119.113 158.205h238.173l-119.060-158.205z" />
<glyph unicode="&#xe61e;" glyph-name="write" data-tags="write" d="M406.361 15.218l-325.204-0.568v271.096h179.171l58.515 54.106h-291.604l-0.189-65.495v-313.246h432.847v221.184l-53.538-52.456zM488.464 279.263l-42.409-42.41-84.13 84.13 42.409 42.409 84.13-84.129zM361.941 278.417l-21.263 21.318-130.964-130.909-36.764-120.197 120.819 35.899 131.072 131.045-21.372 21.263z" />
<glyph unicode="&#xe61f;" glyph-name="flag" data-tags="flag" d="M405.795 366.907h-297.582v-405.795h27.053v216.424h270.529z" />
<glyph unicode="&#xe620;" glyph-name="chatbubble" data-tags="chat bubble" d="M54.106 339.853v-270.528h81.158l0.19-105.399 137.564 105.399h186.882v270.529z" />
<glyph unicode="&#xe621;" glyph-name="Arrow_left" data-tags="Arrow_left" d="M101.335 201.094v0l219.918 219.918 37.084-37.084-219.918-219.919 219.918-219.057-37.084-37.946-257.002 257.003z" />
<glyph unicode="&#xe622;" glyph-name="Arrow_right" data-tags="Arrow_right" d="M409.598 201.094v0l-219.918 219.918-37.084-37.084 219.918-219.919-219.918-219.057 37.084-37.946 257.002 257.003z" />
<glyph unicode="&#xe623;" glyph-name="Quote_left" data-tags="Quote_left" d="M166.005 147.398c30.566 8.639 55.817 28.572 71.099 55.817s19.271 59.139 10.631 89.705c-13.953 50.502-61.131 86.383-113.626 86.383 0 0-0.665 0-0.665 0-42.527-1.994-75.751-18.604-98.344-49.835-40.532-55.817-35.882-144.194-19.27-203.332 27.909-100.337 94.356-170.771 161.469-170.771 3.987 0 8.639 0 12.625 0.664s7.308 2.657 9.302 5.981c1.994 3.322 2.658 7.308 1.994 10.631l-11.96 43.856c-1.329 5.315-5.981 8.638-10.631 9.302-55.817 8.639-84.388 82.397-95.684 124.923 11.96-5.315 27.908-9.302 46.514-9.302 11.296 0.664 23.922 2.658 36.546 5.981v0zM494.925 203.214c15.284 27.243 19.271 59.139 10.632 89.705-13.953 50.502-61.132 86.383-113.626 86.383 0 0-0.664 0-0.664 0-42.527-1.994-75.751-18.604-98.342-49.835-40.533-55.817-35.883-144.194-19.27-203.332 27.909-100.337 94.356-170.771 161.469-170.771 3.987 0 8.638 0 12.625 0.664s7.309 2.657 9.302 5.981c1.994 3.322 2.657 7.308 1.994 10.631l-11.961 43.856c-1.329 5.315-5.981 8.638-10.632 9.302-55.817 8.639-83.725 82.397-95.685 124.923 11.961-5.315 27.909-9.302 46.514-9.302 11.961 0 24.586 1.994 37.212 5.316 30.567 9.966 55.152 29.237 70.436 56.48v0z" />
<glyph unicode="&#xe624;" glyph-name="Quote_right" data-tags="Quote_right" d="M337.887 147.917c12.231-3.219 24.462-5.149 36.048-5.149 18.024 0 33.474 3.863 45.060 9.011-11.587-41.197-38.623-113.294-92.695-121.019-5.149-0.644-9.012-4.506-10.299-9.011l-11.587-42.486c-1.288-3.864-0.644-7.725 1.932-10.299 1.932-3.219 5.149-5.149 9.012-5.793s8.368-0.644 12.231-0.644c64.371 0 128.743 67.59 155.779 164.792 16.092 57.291 20.598 142.905-18.668 196.976-21.887 30.254-54.072 46.347-95.269 48.278 0 0-0.644 0-0.644 0-50.854 0-95.914-34.118-110.076-83.683-8.368-29.611-4.506-60.509 10.3-86.903 15.449-26.392 39.267-45.060 68.877-54.073v0zM19.248 201.989c14.806-26.392 39.267-45.703 68.878-54.072 12.231-3.219 24.462-5.149 36.047-5.149 18.024 0 33.473 3.862 45.060 9.011-11.588-41.197-38.623-113.294-92.695-121.019-5.149-0.644-9.013-4.506-10.3-9.011l-11.587-42.486c-1.288-3.864-0.645-7.725 1.932-10.299 1.932-3.219 5.149-5.149 9.011-5.793s8.367-0.644 12.231-0.644c65.015 0 129.387 68.234 156.423 165.433 16.093 57.291 20.598 142.905-18.667 196.976-23.174 29.611-55.36 45.704-96.558 47.635 0 0-0.644 0-0.644 0-50.854 0-95.914-34.118-110.075-83.683-7.724-29.611-4.506-59.865 10.944-86.901v0z" />
<glyph unicode="&#xe625;" glyph-name="corner" data-tags="corner" horiz-adv-x="346" d="M265.642-56.277l-211.649 211.649 211.649 211.649z" />
<glyph unicode="&#xe626;" glyph-name="corner2" data-tags="corner" horiz-adv-x="426" d="M425.086 256.977l-211.649-211.649-211.649 211.649z" />
<glyph unicode="&#xe627;" glyph-name="corner3" data-tags="corner" horiz-adv-x="426" d="M119.862 376.267l211.649-211.648-211.649-211.648z" />
<glyph unicode="&#xe628;" glyph-name="corner4" data-tags="corner" horiz-adv-x="426" d="M0.574 71.042l211.649 211.649 211.649-211.649z" />
<glyph unicode="&#xe629;" glyph-name="yotpologoTEXT" data-tags="yotpologoTEXT" horiz-adv-x="670" d="M0 421.013h69.066l54.455-98.286 53.127 98.286h66.41l-88.988-156.725v-92.972h-63.753v91.644zM228.446 296.163c0 73.050 58.44 124.85 127.506 124.85 67.737 0 127.505-51.799 127.505-124.85s-58.44-124.85-127.505-124.85c-67.737 0-127.505 51.799-127.505 124.85zM418.376 296.163c0 38.517-22.579 67.737-62.425 67.737s-62.425-29.22-62.425-67.737c0-38.517 22.579-67.737 62.425-67.737s62.425 30.549 62.425 67.737zM543.226 366.557h-62.425v54.455h188.601v-54.455h-62.424v-195.242h-63.753zM90.316-92.993h-63.753v245.713h90.316c63.753 0 99.614-41.173 99.614-95.63s-35.861-95.63-99.614-95.63h-26.564v-54.455zM112.895 17.246c27.891 0 38.517 15.938 38.517 39.846s-10.625 39.846-38.517 39.846h-22.579v-81.019h22.579zM228.446 31.856c0 73.051 58.44 124.85 127.506 124.85 67.737 0 127.505-50.471 127.505-124.85 0-73.050-58.44-124.85-127.505-124.85s-127.505 51.799-127.505 124.85zM417.048 31.856c0 38.517-22.579 67.737-62.425 67.737s-62.425-29.22-62.425-67.737c0-38.517 22.579-67.737 62.425-67.737 39.846-1.328 62.425 29.22 62.425 67.737zM482.13-58.461c0 21.251 15.938 34.533 34.533 34.533s34.533-14.611 34.533-34.533c0-21.251-17.266-34.533-34.533-34.533s-34.533 13.282-34.533 34.533z" />
<glyph unicode="&#xe630;" glyph-name="clock" data-tags="clock" horiz-adv-x="509" d="M254.009 397.558c-130.747 0-236.542-105.795-236.542-236.044s105.794-236.043 236.044-236.043 236.542 105.794 236.542 236.043-105.794 236.044-236.044 236.044zM371.281 44.241c-31.44-31.439-72.859-48.407-117.272-48.407s-85.834 17.466-117.272 48.406c-31.439 31.44-48.407 72.859-48.407 117.274s17.466 85.834 48.407 117.273c31.439 31.439 72.859 48.407 117.272 48.407s85.834-17.466 117.272-48.407c31.44-31.439 48.407-72.859 48.407-117.273s-17.466-85.834-48.406-117.274zM276.964 283.279h-10.479c-8.483 0-15.47-6.986-15.47-15.47v-107.792h-69.365c-8.484 0-15.47-6.986-15.47-15.469v-10.479c0-8.485 6.987-15.469 15.47-15.469h94.318c4.492 0 8.483 1.996 10.978 4.99 2.995 2.994 4.99 6.986 4.99 10.979v133.242c0 8.484-6.488 15.47-14.971 15.47z" />
<glyph unicode="&#xe631;" glyph-name="Image" data-tags="Image" horiz-adv-x="452" d="M403.807 290.564l-95.403 91.508c-12.461 11.683-28.815 18.303-45.949 18.303h-224.683c-11.682 0-21.027-9.345-21.027-21.027v-433.4c0-11.682 9.345-21.027 21.027-21.027h365.255c11.683 0 21.027 9.345 21.027 21.027v295.942c0.39 18.302-7.010 36.214-20.25 48.675zM373.043 266.811h-88.782v85.278l88.783-85.278zM54.905-36.919v399.134h194.7v-112.537c0-9.345 7.788-17.132 17.133-17.132h119.156v-269.464h-330.988zM191.584 178.418c0-27.957-22.664-50.621-50.621-50.621s-50.621 22.664-50.621 50.621c0 27.958 22.664 50.621 50.621 50.621s50.621-22.664 50.621-50.621zM175.23 58.094l-35.046 35.045-49.842-50.233v-51.012h269.853v85.668l-82.553 82.553z" />
<glyph unicode="&#xe632;" glyph-name="insta" data-tags="insta" d="M257.002 374.732c68.668 0 76.8-0.302 103.805-1.506 25.098-1.104 38.651-5.32 47.686-8.834 11.947-4.618 20.58-10.24 29.515-19.174 9.036-9.036 14.556-17.568 19.276-29.516 3.514-9.035 7.73-22.688 8.834-47.686 1.204-27.106 1.506-35.237 1.506-103.805s-0.301-76.799-1.506-103.806c-1.104-25.098-5.32-38.65-8.834-47.686-4.618-11.947-10.24-20.58-19.175-29.515-9.036-9.036-17.568-14.557-29.515-19.276-9.036-3.514-22.688-7.73-47.686-8.834-27.106-1.205-35.238-1.506-103.805-1.506s-76.799 0.301-103.805 1.506c-25.098 1.104-38.65 5.32-47.686 8.834-11.947 4.618-20.58 10.24-29.516 19.175-9.035 9.035-14.556 17.568-19.276 29.515-3.514 9.035-7.73 22.688-8.834 47.686-1.205 27.106-1.506 35.238-1.506 103.806s0.301 76.799 1.506 103.805c1.104 25.098 5.321 38.651 8.834 47.686 4.618 11.947 10.24 20.58 19.174 29.515 9.035 9.036 17.568 14.557 29.516 19.276 9.035 3.514 22.688 7.73 47.686 8.834 27.006 1.204 35.137 1.506 103.805 1.506zM257.002 421.013c-69.772 0-78.506-0.302-105.913-1.506-27.306-1.204-46.080-5.622-62.344-11.947-16.966-6.626-31.322-15.36-45.578-29.716-14.356-14.256-23.090-28.612-29.716-45.478-6.324-16.364-10.742-35.036-11.947-62.344-1.204-27.507-1.506-36.242-1.506-106.013s0.301-78.506 1.506-105.914c1.204-27.306 5.622-46.080 11.947-62.343 6.626-16.966 15.36-31.322 29.716-45.578 14.256-14.256 28.612-23.090 45.477-29.615 16.364-6.324 35.036-10.742 62.344-11.947 27.407-1.204 36.142-1.506 105.913-1.506s78.506 0.302 105.913 1.506c27.306 1.205 46.080 5.622 62.344 11.947 16.866 6.526 31.222 15.36 45.478 29.615s23.090 28.612 29.615 45.478c6.325 16.364 10.742 35.036 11.946 62.343 1.205 27.407 1.506 36.142 1.506 105.914s-0.302 78.506-1.506 105.913c-1.204 27.306-5.622 46.080-11.947 62.344-6.325 17.066-15.058 31.422-29.414 45.678-14.256 14.256-28.612 23.090-45.478 29.615-16.364 6.325-35.036 10.742-62.344 11.946-27.507 1.305-36.241 1.606-106.014 1.606v0zM257.002 296.025c-72.884 0-132.016-59.131-132.016-132.016s59.131-132.016 132.016-132.016 132.016 59.13 132.016 132.016c0 72.884-59.13 132.016-132.015 132.016zM257.002 78.375c-47.284 0-85.634 38.35-85.634 85.634s38.35 85.634 85.634 85.634c47.284 0 85.634-38.35 85.634-85.634s-38.35-85.634-85.634-85.634zM425.058 301.245c0-17.021-13.799-30.82-30.82-30.82s-30.82 13.799-30.82 30.82c0 17.021 13.799 30.82 30.82 30.82s30.82-13.799 30.82-30.82z" />
<glyph unicode="&#xe900;" glyph-name="ticker-top-2" data-tags="top-copy-2" d="M356.238 181.22c17.864 5.589 30.603 21.985 30.606 41.357v2.276h-29.582v-29.582c0-4.779-0.341-9.466-1.024-14.052zM349.218 156.826c-11.464-25.572-33.061-44.864-59.543-52.989l-0.679-0.179v-44.919h19.115c4.994-0.004 9.235-3.225 10.762-7.702l0.024-0.080 11.059-33.178h-136.534l11.059 33.178c1.552 4.56 5.797 7.783 10.795 7.783 0.001 0 0.002 0 0.003 0h19.103v44.919c-27.161 8.305-48.759 27.597-59.979 52.563l-0.244 0.606c-33.952 2.983-60.382 31.281-60.382 65.752v0 25.031h52.338v43.235h191.147v-43.235h52.338v-25.031c0-0.004 0-0.007 0-0.012 0-34.471-26.43-62.769-60.132-65.735l-0.25-0.017zM167.139 181.22c-0.651 4.21-1.024 9.067-1.024 14.011 0 0.014 0 0.029 0 0.043v-0.002 29.582h-29.582v-2.275c0.004-19.373 12.743-35.77 30.3-41.275l0.306-0.083z" />
<glyph unicode="&#xe901;" glyph-name="grid" data-tags="grid" d="M449.755-92.993c0 0 0 67.142 0 67.142s64.25 0 64.25 0c0 0 0-67.142 0-67.142s-64.25 0-64.25 0zM449.755 197.099c0 0 64.25 0 64.25 0s0-66.178 0-66.178c0 0-64.25 0-64.25 0s0 66.178 0 66.178zM449.755 421.013c0 0 64.25 0 64.25 0s0-67.142 0-67.142c0 0-64.25 0-64.25 0s0 67.142 0 67.142zM224.877-25.851c0 0 64.25 0 64.25 0s0-67.142 0-67.142c0 0-64.25 0-64.25 0s0 67.142 0 67.142zM224.877 197.099c0 0 64.25 0 64.25 0s0-66.178 0-66.178c0 0-64.25 0-64.25 0s0 66.178 0 66.178zM224.877 421.013c0 0 64.25 0 64.25 0s0-67.142 0-67.142c0 0-64.25 0-64.25 0s0 67.142 0 67.142zM0-25.851c0 0 64.25 0 64.25 0s0-67.142 0-67.142c0 0-64.25 0-64.25 0s0 67.142 0 67.142zM0 197.099c0 0 64.25 0 64.25 0s0-66.178 0-66.178c0 0-64.25 0-64.25 0s0 66.178 0 66.178zM0 421.013c0 0 64.25 0 64.25 0s0-67.142 0-67.142c0 0-64.25 0-64.25 0s0 67.142 0 67.142z" />
<glyph unicode="&#xe902;" glyph-name="ic_add_a_photo_black_24px" data-tags="ic_add_a_photo_black_24px" d="M64.125 333.504v64.125h42.749v-64.125h64.125v-42.75h-64.125v-64.125h-42.749v64.125h-64.125v42.75h64.125zM128.25 205.254v64.125h64.125v64.125h149.625l39.116-42.75h67.759c23.512 0 42.75-19.238 42.75-42.749v-256.5c0-23.512-19.238-42.75-42.75-42.75h-342.001c-23.513 0-42.749 19.238-42.749 42.75v213.751h64.125zM277.876 12.878c58.995 0 106.875 47.88 106.875 106.875s-47.88 106.875-106.875 106.875-106.875-47.88-106.875-106.875 47.88-106.875 106.875-106.875zM209.476 119.754c0-37.834 30.566-68.4 68.4-68.4s68.4 30.567 68.4 68.4-30.567 68.4-68.4 68.4-68.4-30.566-68.4-68.4z" />
<glyph unicode="&#xe903;" glyph-name="ic_cancel_black_24px" data-tags="ic_cancel_black_24px" d="M256.25 374.794c-118.089 0-213.542-95.453-213.542-213.542s95.453-213.542 213.542-213.542 213.542 95.453 213.542 213.542-95.453 213.542-213.542 213.542zM363.021 84.59l-30.11-30.11-76.661 76.661-76.661-76.661-30.109 30.11 76.662 76.661-76.661 76.661 30.109 30.109 76.662-76.662 76.661 76.661 30.11-30.109-76.661-76.662 76.661-76.662z" />
<glyph unicode="&#xe904;" glyph-name="ticker-like" data-tags="like" d="M409.472 195.757c1.928 20.871-18.409 26.961-26.479 26.961-31.28 0.006-62.57-0.003-93.853 0.025 4.503 9.375 9.993 34.236 3.077 68.486-2.731 13.541-11.082 22.548-21.721 22.368-8.572-0.142-16.757-6.465-17.616-14.35-0.94-8.669-3.165-21.014-5.27-29.456-6.738-26.989-42.776-62.622-65.566-75.054v-131.843c15.459-8.359 32.222-11.284 50.127-10.959 28.286 0.517 109.088 0.065 123.73 0.158 10.363 0.065 20.697 4.794 25.666 16.764 6.79 16.337 26.135 107.795 27.904 126.899zM161.462 211.2h-49.858c-5.084 0-9.204-4.234-9.204-9.459v-151.747c0-5.225 4.121-9.46 9.204-9.46h49.858c5.084 0 9.204 4.235 9.204 9.46v151.747c0 5.221-4.118 9.459-9.204 9.459z" />
<glyph unicode="&#xe905;" glyph-name="ic_keyboard_arrow_right_black_24px" data-tags="ic_keyboard_arrow_right_black_24px" d="M183.433 68.574l97.802 98.015-97.802 98.015 30.109 30.11 128.125-128.125-128.125-128.125z" />
<glyph unicode="&#xe906;" glyph-name="ic_warning_black_24px" data-tags="ic_warning_black_24px" d="M21.355-30.937h469.793l-234.896 405.73-234.896-405.73zM277.604 33.126h-42.708v42.708h42.708v-42.708zM277.604 118.543h-42.708v85.417h42.708v-85.417z" />
<glyph unicode="&#xe907;" glyph-name="cam-large" data-tags="cam-large" d="M324.267 160c0-37.703-30.564-68.266-68.267-68.266s-68.267 30.564-68.267 68.266c0 37.702 30.564 68.267 68.267 68.267s68.267-30.564 68.267-68.267zM192 373.334l-39.040-42.666h-67.626c-23.466 0-42.666-19.2-42.666-42.666v-256c0-23.466 19.2-42.666 42.666-42.666h341.334c23.466 0 42.666 19.2 42.666 42.666v256c0 23.466-19.2 42.667-42.666 42.667h-67.626l-39.040 42.666h-128zM256 53.334c-58.88 0-106.666 47.786-106.666 106.666s47.786 106.667 106.666 106.667 106.666-47.787 106.666-106.667-47.786-106.666-106.666-106.666z" />
<glyph unicode="&#xe908;" glyph-name="ticker-people" data-tags="people" d="M246.834 229.057c0-27.84-22.57-50.41-50.41-50.41s-50.41 22.57-50.41 50.41c0 27.841 22.57 50.41 50.41 50.41s50.41-22.569 50.41-50.41zM365.985 229.057c0-27.84-22.57-50.41-50.41-50.41s-50.41 22.57-50.41 50.41c0 27.841 22.57 50.41 50.41 50.41s50.41-22.569 50.41-50.41zM196.424 151.151v0c49.604 0 92.302-35.034 101.99-83.683l3.413-17.137h-210.805l3.412 17.137c9.688 48.649 52.386 83.683 101.99 83.683zM338.489 50.331l-3.413 17.137c-6.844 34.365-30.159 61.937-60.745 75.165 12.712 5.498 26.681 8.518 41.245 8.518 49.604 0 92.303-35.034 101.99-83.683l3.413-17.137h-82.489z" />
<glyph unicode="&#xe909;" glyph-name="ticker-quote" data-tags="quote" d="M128 53.334h64l42.666 85.333v128h-128v-128h64l-42.666-85.333zM298.666 53.334h64l42.666 85.333v128h-128v-128h64l-42.666-85.333z" />
<glyph unicode="&#xe90a;" glyph-name="play" data-tags="play-btn" horiz-adv-x="431" d="M82.216 392.179l301.649-186.314c15.459-9.655 25.591-26.577 25.591-45.864s-10.132-36.209-25.365-45.733l-0.226-0.132-301.649-186.314c-8.052-5.048-17.837-8.041-28.322-8.041-29.765 0-53.895 24.13-53.895 53.894 0 0.004 0 0.008 0 0.011v-0 372.628c0 0.003 0 0.007 0 0.011 0 29.765 24.13 53.894 53.895 53.894 10.484 0 20.27-2.994 28.548-8.173l-0.226 0.132z" />
<glyph unicode="&#xe90b;" glyph-name="ticker-bag-2" data-tags="bag-copy-3" d="M204.8 222.578h108.578v36.739c0 29.983-24.306 54.289-54.289 54.289s-54.289-24.306-54.289-54.289v0-36.739zM336.134 222.578h33.075c0 0 0.001 0 0.002 0 11.846 0 21.579-9.053 22.656-20.618l0.007-0.090 15.474-170.667c0.059-0.613 0.092-1.327 0.092-2.048 0-12.567-10.188-22.755-22.755-22.755-0 0-0.001 0-0.002 0h-257.365c-0.001 0-0.001 0-0.001 0-12.567 0-22.755 10.188-22.755 22.755 0 0.721 0.034 1.435 0.099 2.138l-0.007-0.090 15.474 170.667c1.085 11.655 10.817 20.708 22.663 20.708 0 0 0.001 0 0.001 0h39.254v36.739c0 42.55 34.494 77.044 77.044 77.044s77.045-34.494 77.045-77.044v0-36.739z" />
<glyph unicode="&#xe90c;" glyph-name="volume-mute" data-tags="volume (1)" horiz-adv-x="582" d="M292.934-39.634c0.003-0.069 0.005-0.151 0.005-0.232 0-2.241-1.204-4.201-3.002-5.268l-0.029-0.015c-0.725-0.452-1.605-0.721-2.548-0.721-0.606 0-1.186 0.111-1.721 0.313l0.034-0.011-141.452 130.28c-8.657 7.96-23.901 7.587-25.251 7.563l-89.251-0.070v168.401l88.785 0.024c0.535-0.139 15.29-1.094 25.553 7.144l140.917 119.738c0.685 0.387 1.503 0.616 2.375 0.616 0.937 0 1.813-0.264 2.557-0.721l-0.021 0.012c1.839-1.084 3.052-3.055 3.052-5.31 0-0.072-0.002-0.145-0.003-0.216l0 0.010v-421.539zM303.127 411.113c-5.327 3.065-11.712 4.873-18.521 4.873-7.431 0-14.36-2.154-20.194-5.871l0.152 0.091-140.264-118.854h-107.986c-8.983 0-16.291-7.331-16.291-16.314v-197.423c0-4.329 1.653-8.448 4.794-11.613 3.096-3.025 7.215-4.701 11.473-4.701l107.613 0.024 138.892-127.953c0.683-0.563 1.443-1.101 2.242-1.582l0.085-0.048c5.545-3.45 12.274-5.495 19.482-5.495 6.806 0 13.186 1.823 18.678 5.009l-0.179-0.096c11.751 6.658 19.552 19.077 19.552 33.32 0 0.166-0.001 0.332-0.003 0.498l0-0.025v412.346c0 14.196-7.284 26.833-19.526 33.815zM572.439 243.712c-2.4 2.4-5.716 3.884-9.379 3.884s-6.979-1.484-9.379-3.884l-64.954-64.954-64.954 64.954c-2.385 2.312-5.641 3.738-9.23 3.738-7.327 0-13.265-5.939-13.265-13.266 0-3.589 1.425-6.845 3.741-9.233l64.951-64.951-64.954-64.954c-2.312-2.385-3.738-5.641-3.738-9.23 0-7.327 5.939-13.265 13.265-13.265 3.589 0 6.845 1.425 9.233 3.741l64.951 64.951 64.954-64.954c2.385-2.312 5.641-3.737 9.23-3.737 7.327 0 13.265 5.939 13.265 13.265 0 3.589-1.426 6.845-3.741 9.233l-64.95 64.951 64.954 64.954c2.4 2.4 3.884 5.716 3.884 9.379s-1.485 6.978-3.884 9.379v0z" />
<glyph unicode="&#xe90d;" glyph-name="volume" data-tags="volume" horiz-adv-x="559" d="M292.934-39.634c0.003-0.069 0.005-0.151 0.005-0.232 0-2.241-1.204-4.201-3.002-5.268l-0.029-0.015c-0.725-0.452-1.605-0.721-2.548-0.721-0.606 0-1.186 0.111-1.721 0.313l0.034-0.011-141.452 130.28c-8.657 7.96-23.901 7.587-25.251 7.563l-89.251-0.070v168.401l88.785 0.024c0.535-0.139 15.29-1.094 25.553 7.144l140.917 119.738c0.685 0.387 1.503 0.616 2.375 0.616 0.937 0 1.813-0.264 2.557-0.721l-0.021 0.012c1.839-1.084 3.052-3.055 3.052-5.31 0-0.072-0.002-0.145-0.003-0.216l0 0.010v-421.539zM303.127 411.113c-5.327 3.065-11.712 4.873-18.521 4.873-7.431 0-14.36-2.154-20.194-5.871l0.152 0.091-140.264-118.854h-107.986c-8.983 0-16.291-7.331-16.291-16.314v-197.423c0-4.329 1.653-8.448 4.794-11.613 3.096-3.025 7.215-4.701 11.473-4.701l107.613 0.024 138.892-127.953c0.683-0.563 1.443-1.101 2.242-1.582l0.085-0.048c5.545-3.45 12.274-5.495 19.482-5.495 6.806 0 13.186 1.823 18.678 5.009l-0.179-0.096c11.751 6.658 19.552 19.077 19.552 33.32 0 0.166-0.001 0.332-0.003 0.498l0-0.025v412.346c0 14.196-7.284 26.833-19.526 33.815zM439.087 333.266v0.024c-1.402 0.493-3.019 0.777-4.701 0.777-8.070 0-14.613-6.542-14.613-14.613 0-6.387 4.099-11.817 9.809-13.805l0.103-0.031c58.62-20.411 99.933-75.2 99.933-139.638 0-0.032 0-0.065 0-0.096v0.005c0-0.036 0-0.079 0-0.123 0-64.364-41.213-119.103-98.69-139.267l-1.034-0.316c-3.709-1.287-6.667-3.928-8.341-7.316l-0.038-0.085c-0.925-1.865-1.465-4.061-1.465-6.384 0-8.085 6.554-14.639 14.639-14.639 1.656 0 3.248 0.275 4.733 0.782l-0.103-0.030c70.083 24.58 119.436 90.17 119.436 167.287 0 0.032 0 0.064 0 0.095v-0.005c0 0.032 0 0.071 0 0.111 0 77.177-49.469 142.8-118.428 166.89l-1.24 0.377zM390.517 285.208c-1.211 0.361-2.601 0.568-4.041 0.568-2.599 0-5.041-0.677-7.158-1.863l0.074 0.038c-3.322-1.866-5.788-4.923-6.841-8.579l-0.025-0.101c-0.375-1.229-0.591-2.641-0.591-4.103 0-6.602 4.399-12.177 10.425-13.953l0.103-0.026c39.801-12.012 68.308-48.3 68.422-91.263v-0.013c-0.103-42.98-28.628-79.27-67.77-91.077l-0.675-0.175c-6.151-1.812-10.565-7.407-10.565-14.034 0-8.065 6.538-14.603 14.603-14.603 1.438 0 2.829 0.208 4.141 0.596l-0.103-0.026c52.060 15.682 89.359 63.121 89.53 119.299v0.020c-0.173 56.191-37.472 103.623-88.647 119.067l-0.884 0.229z" />
<glyph unicode="&#xe90e;" glyph-name="twitter-new" data-tags="twitter" d="M488.556 302.094c-16.017-7.276-34.596-12.571-54.076-14.945l-0.923-0.091c19.798 11.967 34.688 30.351 41.925 52.22l0.195 0.678c-17.517-10.556-37.902-18.606-59.616-22.994l-1.231-0.207c-17.512 18.599-42.296 30.181-69.786 30.181-0.050 0-0.101 0-0.151 0h0.008c-0.036 0-0.077 0-0.119 0-52.863 0-95.717-42.854-95.717-95.717 0-7.694 0.908-15.176 2.622-22.345l-0.131 0.651c-79.78 4.091-149.974 41.946-197.089 99.441l-0.382 0.481c-8.169-13.785-12.996-30.385-12.996-48.112 0-33.055 16.785-62.191 42.296-79.348l0.342-0.216c-16.002 0.518-30.874 4.891-43.864 12.213l0.478-0.248v-1.213c0.039-46.149 32.725-84.654 76.207-93.67l0.621-0.107c-7.535-2.12-16.189-3.34-25.127-3.34-6.41 0-12.674 0.627-18.734 1.823l0.611-0.101c12.629-38.332 47.767-65.66 89.4-66.451l0.093-0.001c-32.366-25.563-73.755-41.004-118.751-41.004-8.142 0-16.165 0.505-24.041 1.487l0.941-0.096c41.441-26.937 92.136-42.954 146.571-42.954 0.102 0 0.205 0 0.308 0h-0.016c176.236 0 272.626 145.731 272.626 272.115 0 4.15-0.108 8.273-0.269 12.396 18.823 13.677 34.685 30.070 47.368 48.792l0.437 0.683z" />
<glyph unicode="&#xe90f;" glyph-name="video" data-tags="video" d="M392.137 200.668l79.781-101.193c2.168-2.922 5.607-4.795 9.483-4.795 1.966 0 3.818 0.481 5.447 1.333l-0.065-0.031c5.522 2.835 8.284 7.772 8.284 14.812v273.115c0 7.040-2.761 11.977-8.284 14.812-1.55 0.757-3.368 1.218-5.288 1.262l-0.015 0c-0.033 0-0.071 0-0.11 0-3.859 0-7.284-1.856-9.432-4.724l-0.022-0.031-79.781-100.937v-93.641zM49.554 416h273.463c17.262 0 31.269-14.007 31.269-31.268v-273.463c0-17.269-14-31.269-31.269-31.269v0h-273.463c-17.269 0-31.268 14-31.268 31.269v0 273.463c0 17.262 14.007 31.269 31.268 31.269zM185.472 145.188c57.442 0 104.009 46.567 104.009 104.009s-46.566 104.009-104.009 104.009v0c-57.438 0-104-46.563-104-104s46.563-104 104-104v0zM241.481 249.198c0-30.933-25.076-56.009-56.009-56.009s-56.009 25.076-56.009 56.009c0 30.933 25.076 56.009 56.009 56.009s56.009-25.076 56.009-56.009z" />
<glyph unicode="&#xe910;" glyph-name="facebook-new" data-tags="fb" d="M283.837-48.492v197.12h67.018l11.318 77.824h-78.336v53.060c0 16.438 13.797 29.911 30.693 29.911h50.661v71.68l-63.676 2.479c-59.419 2.317-99.759-41.418-99.759-92.887v-64.27h-67.018v-77.824h67.018v-197.12z" />
<glyph unicode="&#xe911;" glyph-name="unlike-active" data-tags="mobile-unlike-active" d="M167.168 374.835c12.391 13.619 37.017 20.429 73.831 20.429h125.593c59.213 0.077 109.978-41.318 120.474-98.253l22.887-123.597c0.674-3.535 1.060-7.601 1.060-11.756 0-16.467-6.052-31.521-16.053-43.058l0.070 0.082c-12.731-14.74-31.445-24.014-52.327-24.014-0.117 0-0.234 0-0.351 0.001h-116.897c-0.038 0-0.084 0.001-0.129 0.001-5.483 0-9.937-4.409-10.009-9.875v-95.546c-0.179-35.84-29.952-64.768-66.611-64.768-16.281 0-29.619 12.647-30.106 28.544l-13.977 109.184c-4.143 14.164-14.195 25.423-27.233 31.111l-0.313 0.122c-10.602 4.89-17.831 15.423-17.843 27.646v233.269c0 7.578 2.816 14.848 7.936 20.48zM125.517 123.879v-16.128c0-6.502-5.401-11.776-12.058-11.776h-101.401c-6.681 0.025-12.057 5.274-12.057 11.801v277.171c0 6.502 5.376 11.776 12.032 11.776h101.632c6.656 0 12.032-5.274 12.032-11.776v-8.832l-0.128-252.211z" />
<glyph unicode="&#xe912;" glyph-name="writenoframe" data-tags="ic-edit-black-24-px-1" d="M4.864 13.48v-104.606h104.606l308.539 308.539-104.566 104.606-308.579-308.539zM498.945 298.309c5.060 5.031 8.192 11.995 8.192 19.692s-3.132 14.662-8.19 19.691l-65.301 65.262c-5.029 5.048-11.986 8.171-19.673 8.171s-14.644-3.124-19.671-8.171l-51.043-51.083 104.606-104.606 51.082 51.042z" />
<glyph unicode="&#xe913;" glyph-name="dialog" data-tags="ic-question-answer-black-24-px-2" d="M473.6 305.067h-48.367v-217.6h-314.3v-48.367c0-13.312 10.888-24.167 24.166-24.167h265.967l96.7-96.699v362.666c-0.038 13.331-10.836 24.128-24.163 24.167h-0.003zM376.901 160v217.6c-0.039 13.343-10.854 24.147-24.199 24.166h-314.301c-13.331-0.038-24.128-10.835-24.166-24.162v-338.504l96.7 96.734h241.767c13.346 0.019 24.162 10.824 24.2 24.163v0.003z" />
<glyph unicode="&#xe914;" glyph-name="finetune" data-tags="ic-tune-black-24-px-1" d="M9.143 22.857v-54.857h164.571v54.857h-164.571zM9.143 352v-54.857h274.285v54.857h-274.286zM283.428-86.857v54.857h219.428v54.857h-219.428v54.857h-54.857v-164.572h54.857zM118.857 242.286v-54.857h-109.715v-54.857h109.715v-54.857h54.857v164.572h-54.857zM502.857 132.572v54.857h-274.286v-54.857h274.286zM338.286 242.286h54.857v54.857h109.714v54.857h-109.714v54.857h-54.857v-164.571z" />
<glyph unicode="&#xe915;" glyph-name="clear" data-tags="clear" d="M512 364.442l-51.558 51.558-204.442-204.441-204.441 204.441-51.559-51.558 204.441-204.441-204.441-204.442 51.559-51.558 204.441 204.442 204.442-204.442 51.558 51.558-204.442 204.442z" />
<glyph unicode="&#xe916;" glyph-name="search" data-tags="search" d="M365.909 93.986l146.091-146.363-43.623-43.623-146.363 146.091v23.109l-7.919 8.192c-32.98-28.549-76.298-45.944-123.678-45.944-0.043 0-0.087 0-0.131 0h0.007c-105.078 0-190.259 85.182-190.259 190.259s85.182 190.259 190.259 190.259c105.078 0 190.259-85.182 190.259-190.259v0c0-0.036 0-0.080 0-0.124 0-47.38-17.394-90.699-46.145-123.917l0.202 0.239 8.192-7.919h23.108zM190.293 93.986c0.050 0 0.111 0 0.171 0 72.653 0 131.55 58.897 131.55 131.55 0 0.072 0 0.144 0 0.216v-0.012c0 0.050 0 0.111 0 0.171 0 72.653-58.897 131.55-131.55 131.55-0.072 0-0.144 0-0.216 0h0.012c-0.050 0-0.111 0-0.171 0-72.653 0-131.55-58.897-131.55-131.55 0-0.072 0-0.144 0-0.216v0.012c0-0.050 0-0.111 0-0.171 0-72.653 58.897-131.55 131.55-131.55 0.072 0 0.144 0 0.216 0h-0.012z" />
<glyph unicode="&#xe917;" glyph-name="like-active" data-tags="mobile-like-active" d="M166.989-56.089c12.365-13.824 37.018-20.711 74.010-20.711h125.593c59.213-0.051 109.978 41.472 120.474 98.585l22.887 123.955c0.676 3.55 1.063 7.634 1.063 11.808 0 16.509-6.053 31.604-16.060 43.188l0.072-0.084c-12.719 14.77-31.442 24.065-52.335 24.065-0.114 0-0.228-0-0.341-0.001h-116.898c-0.031-0-0.067-0-0.103-0-5.507 0-9.977 4.435-10.034 9.928v95.878c-0.179 35.917-29.952 64.921-66.611 64.921-16.281 0-29.619-12.672-30.106-28.621l-13.977-109.543c-4.145-14.191-14.205-25.475-27.258-31.187l-0.313-0.122c-10.595-4.906-17.814-15.446-17.817-27.673v-234.138c0-7.475 2.765-14.694 7.757-20.275zM125.517 195.456v16.154c-0.058 6.544-5.376 11.828-11.929 11.828-0.036 0-0.073 0-0.109-0h-101.422c-6.656 0-12.057-5.299-12.057-11.827v-278.016c0-6.528 5.376-11.802 12.032-11.802h101.632c6.656 0 12.032 5.274 12.032 11.776v8.883l-0.153 253.005z" />
<glyph unicode="&#xe918;" glyph-name="arrow-left-light" data-tags="previous" horiz-adv-x="249" d="M10.928 170.021l209.013 227.328c2.174 2.468 5.343 4.017 8.872 4.017s6.697-1.549 8.861-4.005l0.011-0.013c2.286-2.546 3.684-5.929 3.684-9.64s-1.398-7.094-3.696-9.654l0.012 0.014-200.119-217.644 200.119-217.63c2.291-2.547 3.691-5.933 3.691-9.647s-1.401-7.101-3.703-9.661l0.012 0.013c-2.184-2.431-5.316-3.971-8.809-4.038h-0.012c-3.515 0.015-6.664 1.569-8.81 4.024l-0.012 0.014-209.028 227.328c-2.296 2.544-3.7 5.931-3.7 9.646 0 3.668 1.37 7.017 3.625 9.562l-0.013-0.015" />
<glyph unicode="&#xe919;" glyph-name="arrow-right-light" data-tags="next" horiz-adv-x="249" d="M237.758 170.021l-209.013 227.328c-2.175 2.468-5.343 4.017-8.872 4.017s-6.697-1.549-8.861-4.005l-0.011-0.013c-2.287-2.546-3.684-5.929-3.684-9.64s1.398-7.094 3.697-9.654l-0.012 0.014 200.119-217.644-200.119-217.63c-2.29-2.547-3.691-5.933-3.691-9.647s1.401-7.101 3.703-9.661l-0.011 0.013c2.184-2.431 5.316-3.971 8.809-4.038h0.012c3.16 0 6.407 1.317 8.821 4.038l209.028 227.328c2.296 2.544 3.7 5.931 3.7 9.646 0 3.668-1.369 7.017-3.625 9.562l0.013-0.015" />
<glyph unicode="&#xe91a;" glyph-name="info" data-tags="info" d="M256-65.894c-124.743 0.039-225.856 101.152-225.894 225.891v0.003c0.039 124.742 101.152 225.856 225.891 225.895h0.004c124.743-0.039 225.856-101.152 225.894-225.891v-0.004c-0.039-124.743-101.152-225.855-225.89-225.894h-0.003zM278.596 272.947h-45.192v-135.51h45.192v135.51zM278.596 92.245h-45.192v-45.192h45.192v45.192z" />
<glyph unicode="&#xe91b;" glyph-name="photo" data-tags="photo" horiz-adv-x="652" d="M211.014 269.382c-0.132-34.732-28.318-62.837-63.069-62.837-0.082 0-0.164 0-0.246 0h0.012c-0.069-0-0.151-0-0.233-0-34.751 0-62.936 28.105-63.069 62.824v0.013c0.132 34.732 28.318 62.837 63.069 62.837 0.082 0 0.164 0 0.246-0h-0.012c0.069 0 0.151 0 0.233 0 34.751 0 62.936-28.105 63.069-62.824v-0.012zM548.608 143.709v-146.618h-464.198v62.837l105.495 104.728 52.76-52.364 168.797 167.564 137.146-136.146zM580.259 374.109h-527.5c-5.608 0-10.566-4.887-10.566-10.473v-397.964c0-5.586 4.957-10.472 10.566-10.472h527.5c5.609 0 10.566 4.887 10.566 10.472v397.964c0 5.585-4.957 10.472-10.566 10.472zM633.018 363.637v-397.964c0-28.788-23.738-52.363-52.76-52.363h-527.5c-0.014 0-0.031 0-0.047 0-28.989 0-52.514 23.401-52.712 52.345v397.983c0 28.811 23.738 52.363 52.76 52.363h527.5c0.014 0 0.031 0 0.048 0 28.99 0 52.514-23.401 52.712-52.345v-0.019z" />
<glyph unicode="&#xe91c;" glyph-name="cart" data-tags="v (1)" d="M252.988-89.976c-139.721 0-252.988 113.267-252.988 252.988s113.266 252.988 252.988 252.988c139.721 0 252.988-113.266 252.988-252.988s-113.267-252.988-252.988-252.988zM356.545 271.769l-130.678-131.68-61.784 62.085-45.466-45.816 107.266-108.090 176.069 177.421-45.406 46.080z" />
</font>
</defs>
</svg>
